# xmcd
#
# Track frame offsets: 
#        150
#        12386
#        31661
#        45795
#        58115
#        71142
#        90192
#        104791
#        121959
#        134128
#        148566
#        166295
#
# Disc length: 2418 seconds
#
# Revision: 0
# Processed by: cddbd v1.5.2PL0 Copyright (c) Steve Scherf et al.
# Submitted via: ExactAudioCopy v0.95b4
#
DISCID=a209700c
DTITLE=The City Shakers - The Very Best Of....
DYEAR=2008
DGENRE=Blues
TTITLE0=I ain't got you
TTITLE1=Tellin' You Straight
TTITLE2=Shake That Thing
TTITLE3=Mean Ol' Train
TTITLE4=Suger Sweet
TTITLE5=Get Out Of The Car
TTITLE6=Nosey Neighbours
TTITLE7=Roll Your Moneymaker
TTITLE8=Mellow Down Easy
TTITLE9=Pall-Bearer's Song
TTITLE10=Got My Mojo Working
TTITLE11=Messin' With The Booze
EXTD=
EXTT0=
EXTT1=
EXTT2=
EXTT3=
EXTT4=
EXTT5=
EXTT6=
EXTT7=
EXTT8=
EXTT9=
EXTT10=
EXTT11=
PLAYORDER=
